<svg width="24" height="24" viewBox="0 0 24 24" fill="none" xmlns="http://www.w3.org/2000/svg">
<path d="M2 0H22C22.5304 0 23.0391 0.210714 23.4142 0.585786C23.7893 0.960859 24 1.46957 24 2V22C24 22.5304 23.7893 23.0391 23.4142 23.4142C23.0391 23.7893 22.5304 24 22 24H2C1.46957 24 0.960859 23.7893 0.585786 23.4142C0.210714 23.0391 0 22.5304 0 22V2C0 1.46957 0.210714 0.960859 0.585786 0.585786C0.960859 0.210714 1.46957 0 2 0V0Z" fill="#005EA2"/>
<path fill-rule="evenodd" clip-rule="evenodd" d="M18.1 8.7C18.0962 8.88542 18.0251 9.06313 17.9 9.2L12.2 14.9L11.1 16C10.9631 16.1251 10.7854 16.1962 10.6 16.2C10.4146 16.1962 10.2369 16.1251 10.1 16L9 14.9L6.2 12.1C6.07486 11.9631 6.00377 11.7854 6 11.6C6.00377 11.4146 6.07486 11.2369 6.2 11.1L7.3 10C7.43687 9.87486 7.61458 9.80377 7.8 9.8C7.98542 9.80377 8.16313 9.87486 8.3 10L10.6 12.3L15.7 7.2C15.8369 7.07486 16.0146 7.00377 16.2 7C16.3854 7.00377 16.5631 7.07486 16.7 7.2L17.8 8.3C18 8.4 18.1 8.5 18.1 8.7V8.7Z" fill="white"/>
</svg>
