<svg width="26" height="26" viewBox="0 0 26 26" fill="none" xmlns="http://www.w3.org/2000/svg">
<path fill-rule="evenodd" clip-rule="evenodd" d="M11.917 16.2503H14.0837V18.417H11.917V16.2503ZM11.917 7.58366H14.0837V14.0837H11.917V7.58366ZM12.9895 2.16699C7.00949 2.16699 2.16699 7.02033 2.16699 13.0003C2.16699 18.9803 7.00949 23.8337 12.9895 23.8337C18.9803 23.8337 23.8337 18.9803 23.8337 13.0003C23.8337 7.02033 18.9803 2.16699 12.9895 2.16699ZM13.0003 21.667C8.21199 21.667 4.33366 17.7887 4.33366 13.0003C4.33366 8.21199 8.21199 4.33366 13.0003 4.33366C17.7887 4.33366 21.667 8.21199 21.667 13.0003C21.667 17.7887 17.7887 21.667 13.0003 21.667Z" fill="#F39268"/>
</svg>
