<svg width="26" height="26" viewBox="0 0 26 26" fill="none" xmlns="http://www.w3.org/2000/svg">
<path fill-rule="evenodd" clip-rule="evenodd" d="M11.916 16.2503H14.0827V18.417H11.916V16.2503ZM11.916 7.58366H14.0827V14.0837H11.916V7.58366ZM12.9885 2.16699C7.00852 2.16699 2.16602 7.02033 2.16602 13.0003C2.16602 18.9803 7.00852 23.8337 12.9885 23.8337C18.9793 23.8337 23.8327 18.9803 23.8327 13.0003C23.8327 7.02033 18.9793 2.16699 12.9885 2.16699ZM12.9993 21.667C8.21102 21.667 4.33268 17.7887 4.33268 13.0003C4.33268 8.21199 8.21102 4.33366 12.9993 4.33366C17.7877 4.33366 21.666 8.21199 21.666 13.0003C21.666 17.7887 17.7877 21.667 12.9993 21.667Z" fill="#F39268"/>
</svg>
