<svg width="26" height="26" viewBox="0 0 26 26" fill="none" xmlns="http://www.w3.org/2000/svg">
<path fill-rule="evenodd" clip-rule="evenodd" d="M22.7502 8.66699C23.9418 8.66699 24.9168 9.64199 24.9168 10.8337C24.9168 12.4045 23.3568 13.282 22.1977 12.9245L18.341 16.7703C18.7093 17.9403 17.821 19.5003 16.2502 19.5003C14.6685 19.5003 13.791 17.9295 14.1593 16.7703L11.3968 14.0078C11.0718 14.1053 10.5952 14.1053 10.2702 14.0078L5.341 18.9478C5.6985 20.107 4.821 21.667 3.25016 21.667C2.0585 21.667 1.0835 20.692 1.0835 19.5003C1.0835 17.9295 2.6435 17.052 3.80266 17.4095L8.74266 12.4803C8.37433 11.3103 9.26266 9.75033 10.8335 9.75033C12.4152 9.75033 13.2927 11.3212 12.9243 12.4803L15.6868 15.2428C16.0118 15.1453 16.4885 15.1453 16.8135 15.2428L20.6593 11.3862C20.3018 10.227 21.1793 8.66699 22.7502 8.66699Z" fill="white"/>
</svg>
