<svg width="50" height="50" viewBox="0 0 50 50" fill="none" xmlns="http://www.w3.org/2000/svg">
<path d="M21.6144 22.582L9.34013 34.8563C9.0173 35.1788 8.76119 35.5618 8.58645 35.9833C8.41172 36.4048 8.32178 36.8566 8.32178 37.3129C8.32178 37.7692 8.41172 38.2211 8.58645 38.6426C8.76119 39.0641 9.0173 39.4471 9.34013 39.7695C9.99127 40.4205 10.8743 40.7862 11.795 40.7862C12.7157 40.7862 13.5987 40.4205 14.2499 39.7695L26.5242 27.4918M34.0155 28.1254L40.7481 34.8581C41.3991 35.5092 41.7647 36.3922 41.7647 37.3129C41.7647 38.2336 41.3991 39.1167 40.7481 39.7678C40.097 40.4187 39.214 40.7844 38.2933 40.7844C37.3725 40.7844 36.4895 40.4187 35.8384 39.7678L25.0589 28.99M15.8558 14.4171L12.17 15.6428L8.48944 9.50564L10.9443 7.05078L17.0832 10.7331L15.8558 14.4171ZM15.8558 14.4171L20.769 19.3303Z" fill="white"/>
<path d="M21.6144 22.582C20.1492 18.8442 20.4356 13.9397 23.4565 10.9188C26.4773 7.898 32.0502 7.23654 35.1179 9.07856L29.8401 14.3563L29.3488 19.7574L34.7499 19.2678L40.0276 13.9883C41.8714 17.0577 41.2082 22.6306 38.1874 25.6497C35.1665 28.6706 30.2637 28.957 26.5259 27.4918" fill="white"/>
<path d="M26.5242 27.4918L14.2499 39.7695C13.5987 40.4205 12.7157 40.7862 11.795 40.7862C10.8743 40.7862 9.99127 40.4205 9.34013 39.7695C9.0173 39.4471 8.76119 39.0641 8.58645 38.6426C8.41172 38.2211 8.32178 37.7692 8.32178 37.3129C8.32178 36.8566 8.41172 36.4048 8.58645 35.9833C8.76119 35.5618 9.0173 35.1788 9.34013 34.8563L21.6144 22.582C20.1492 18.8442 20.4356 13.9397 23.4565 10.9188C26.4773 7.898 32.0502 7.23654 35.1179 9.07856L29.8401 14.3563L29.3488 19.7574L34.7499 19.2678L40.0276 13.9883C41.8714 17.0577 41.2082 22.6306 38.1874 25.6497C35.1665 28.6706 30.2637 28.957 26.5259 27.4918M34.0155 28.1254L40.7481 34.8581C41.3991 35.5092 41.7647 36.3922 41.7647 37.3129C41.7647 38.2336 41.3991 39.1167 40.7481 39.7678C40.097 40.4187 39.214 40.7844 38.2933 40.7844C37.3725 40.7844 36.4895 40.4187 35.8384 39.7678L25.0589 28.99M15.8558 14.4171L12.17 15.6428L8.48944 9.50564L10.9443 7.05078L17.0832 10.7331L15.8558 14.4171ZM15.8558 14.4171L20.769 19.3303" stroke="#F0F0F0" stroke-width="1.5" stroke-linecap="round" stroke-linejoin="round"/>
</svg>
