<svg width="26" height="26" viewBox="0 0 26 26" fill="none" xmlns="http://www.w3.org/2000/svg">
<path fill-rule="evenodd" clip-rule="evenodd" d="M22.7506 8.66699C23.9423 8.66699 24.9173 9.64199 24.9173 10.8337C24.9173 12.4045 23.3573 13.282 22.1981 12.9245L18.3415 16.7703C18.7098 17.9403 17.8215 19.5003 16.2506 19.5003C14.669 19.5003 13.7915 17.9295 14.1598 16.7703L11.3973 14.0078C11.0723 14.1053 10.5956 14.1053 10.2706 14.0078L5.34148 18.9478C5.69898 20.107 4.82148 21.667 3.25065 21.667C2.05898 21.667 1.08398 20.692 1.08398 19.5003C1.08398 17.9295 2.64398 17.052 3.80315 17.4095L8.74315 12.4803C8.37482 11.3103 9.26315 9.75033 10.834 9.75033C12.4157 9.75033 13.2932 11.3212 12.9248 12.4803L15.6873 15.2428C16.0123 15.1453 16.489 15.1453 16.814 15.2428L20.6598 11.3862C20.3023 10.227 21.1798 8.66699 22.7506 8.66699Z" fill="white"/>
</svg>
