<svg width="26" height="26" viewBox="0 0 26 26" fill="none" xmlns="http://www.w3.org/2000/svg">
<path fill-rule="evenodd" clip-rule="evenodd" d="M22.7497 8.66699C23.9413 8.66699 24.9163 9.64199 24.9163 10.8337C24.9163 12.4045 23.3563 13.282 22.1972 12.9245L18.3405 16.7703C18.7088 17.9403 17.8205 19.5003 16.2497 19.5003C14.668 19.5003 13.7905 17.9295 14.1588 16.7703L11.3963 14.0078C11.0713 14.1053 10.5947 14.1053 10.2697 14.0078L5.34051 18.9478C5.69801 20.107 4.82051 21.667 3.24967 21.667C2.05801 21.667 1.08301 20.692 1.08301 19.5003C1.08301 17.9295 2.64301 17.052 3.80217 17.4095L8.74217 12.4803C8.37384 11.3103 9.26217 9.75033 10.833 9.75033C12.4147 9.75033 13.2922 11.3212 12.9238 12.4803L15.6863 15.2428C16.0113 15.1453 16.488 15.1453 16.813 15.2428L20.6588 11.3862C20.3013 10.227 21.1788 8.66699 22.7497 8.66699Z" fill="white"/>
</svg>
