<svg width="434" height="31" viewBox="0 0 434 31" fill="none" xmlns="http://www.w3.org/2000/svg">
<path d="M384.967 0.96875H0.967285V30.0312H384.967V0.96875Z" fill="white" stroke="#565C65"/>
<path d="M384.467 0.5H429.467C430.528 0.5 431.546 0.895088 432.296 1.59835C433.046 2.30161 433.467 3.25544 433.467 4.25V26.75C433.467 27.7446 433.046 28.6984 432.296 29.4016C431.546 30.1049 430.528 30.5 429.467 30.5H384.467V0.5Z" fill="#005EA2"/>
<g clip-path="url(#clip0_1_79442)">
<path fill-rule="evenodd" clip-rule="evenodd" d="M411.379 16.4208H410.626L410.359 16.1796C411.293 15.1611 411.855 13.839 411.855 12.4006C411.855 9.19345 409.082 6.59375 405.661 6.59375C402.24 6.59375 399.467 9.19345 399.467 12.4006C399.467 15.6078 402.24 18.2075 405.661 18.2075C407.196 18.2075 408.606 17.6804 409.692 16.8049L409.949 17.0551V17.7608L414.714 22.2187L416.134 20.8876L411.379 16.4208ZM405.661 16.4208C403.289 16.4208 401.373 14.6251 401.373 12.4006C401.373 10.1762 403.289 8.38049 405.661 8.38049C408.034 8.38049 409.949 10.1762 409.949 12.4006C409.949 14.6251 408.034 16.4208 405.661 16.4208Z" fill="white"/>
</g>
<defs>
<clipPath id="clip0_1_79442">
<rect width="20" height="18.75" fill="white" transform="translate(396.967 4.25)"/>
</clipPath>
</defs>
</svg>
