<svg width="280" height="49" viewBox="0 0 280 49" fill="none" xmlns="http://www.w3.org/2000/svg">
<rect width="48" height="48" transform="translate(0 0.5)" fill="#ADADAD"/>
<path fill-rule="evenodd" clip-rule="evenodd" d="M40.6673 24.4997C40.6673 15.2997 33.2007 7.83301 24.0007 7.83301C14.8007 7.83301 7.33398 15.2997 7.33398 24.4997C7.33398 32.5663 13.0673 39.283 20.6673 40.833V29.4997H17.334V24.4997H20.6673V20.333C20.6673 17.1163 23.284 14.4997 26.5007 14.4997H30.6673V19.4997H27.334C26.4173 19.4997 25.6673 20.2497 25.6673 21.1663V24.4997H30.6673V29.4997H25.6673V41.083C34.084 40.2497 40.6673 33.1497 40.6673 24.4997Z" fill="black"/>
<rect width="48" height="48" transform="translate(58 0.5)" fill="#ADADAD"/>
<path d="M82.0007 7.83301C72.7959 7.83301 65.334 15.2949 65.334 24.4997C65.334 33.7044 72.7959 41.1663 82.0007 41.1663C91.2054 41.1663 98.6673 33.7044 98.6673 24.4997C98.6673 20.0794 96.9114 15.8402 93.7858 12.7146C90.6602 9.58896 86.4209 7.83301 82.0007 7.83301ZM90.334 21.333C90.334 21.4997 90.334 21.683 90.334 21.8497C90.3564 24.8888 89.159 27.8099 87.01 29.959C84.8609 32.108 81.9398 33.3054 78.9007 33.283C76.7194 33.2928 74.5824 32.6674 72.7507 31.483C73.0727 31.4996 73.3953 31.4996 73.7173 31.483C75.5246 31.5095 77.2874 30.9219 78.7173 29.8163C77.0089 29.7688 75.5177 28.6453 75.0007 27.0163C75.2514 27.0779 75.5092 27.106 75.7673 27.0997C76.1215 27.0985 76.4741 27.0537 76.8173 26.9663C74.9706 26.5518 73.6605 24.909 73.6673 23.0163C74.2226 23.3296 74.8466 23.5013 75.484 23.5163C73.6747 22.3481 73.0962 19.9681 74.1673 18.0997C76.2155 20.6308 79.2482 22.1653 82.5007 22.3163C82.4291 22.0158 82.39 21.7085 82.384 21.3997C82.384 19.1813 84.1823 17.383 86.4007 17.383C87.5185 17.3707 88.5898 17.8306 89.3507 18.6497C90.2289 18.4674 91.0691 18.1348 91.834 17.6663C91.5404 18.603 90.9113 19.3983 90.0673 19.8997C90.8692 19.8077 91.6513 19.5883 92.384 19.2497C91.8287 20.0595 91.1347 20.7648 90.334 21.333Z" fill="black"/>
<rect width="48" height="48" transform="translate(116 0.5)" fill="#ADADAD"/>
<path fill-rule="evenodd" clip-rule="evenodd" d="M140.001 7.83301C144.421 7.83301 148.66 9.58896 151.786 12.7146C154.911 15.8402 156.667 20.0794 156.667 24.4997C156.667 33.7044 149.205 41.1663 140.001 41.1663C130.796 41.1663 123.334 33.7044 123.334 24.4997C123.334 15.2949 130.796 7.83301 140.001 7.83301ZM141.306 17.4399L140.001 17.4497C137.389 17.4006 134.778 17.5286 132.184 17.833C131.307 18.0699 130.63 18.7666 130.417 19.6497C130.13 21.2501 129.99 22.8736 130.001 24.4997C129.987 26.1424 130.127 27.7828 130.417 29.3997C130.646 30.2635 131.32 30.9381 132.184 31.1663C134.777 31.4874 137.388 31.6322 140.001 31.5997C142.613 31.6322 145.225 31.4874 147.817 31.1663C148.694 30.9294 149.372 30.2327 149.584 29.3497C149.872 27.7492 150.011 26.1257 150.001 24.4997C150.014 22.857 149.875 21.2165 149.584 19.5997C149.356 18.7359 148.681 18.0612 147.817 17.833C145.223 17.5286 142.612 17.4006 140.001 17.4497L141.306 17.4399ZM137.951 21.533L143.184 24.4997L137.951 27.4663V21.533Z" fill="black"/>
<rect width="48" height="48" transform="translate(174 0.5)" fill="#ADADAD"/>
<path fill-rule="evenodd" clip-rule="evenodd" d="M198.001 7.83301C202.421 7.83301 206.66 9.58896 209.786 12.7146C212.911 15.8402 214.667 20.0794 214.667 24.4997C214.667 33.7044 207.205 41.1663 198.001 41.1663C188.796 41.1663 181.334 33.7044 181.334 24.4997C181.334 15.2949 188.796 7.83301 198.001 7.83301ZM202.484 14.4997H193.517C190.474 14.5088 188.01 16.9734 188.001 20.0163V28.983C188.01 32.026 190.474 34.4905 193.517 34.4997H202.484C205.527 34.4905 207.992 32.026 208.001 28.983V20.0163C207.992 16.9734 205.527 14.5088 202.484 14.4997ZM202.484 16.2663C204.555 16.2663 206.234 17.9453 206.234 20.0163V28.983L206.225 29.2398C206.093 31.1911 204.469 32.733 202.484 32.733H193.517C191.446 32.733 189.767 31.0541 189.767 28.983V20.0163C189.767 17.9453 191.446 16.2663 193.517 16.2663H202.484ZM198.001 19.3497C195.156 19.3497 192.851 21.6554 192.851 24.4997C192.851 27.3439 195.156 29.6497 198.001 29.6497C199.367 29.6497 200.676 29.1071 201.642 28.1413C202.608 27.1755 203.151 25.8655 203.151 24.4997C203.151 21.6554 200.845 19.3497 198.001 19.3497ZM198.001 21.1663C199.842 21.1663 201.334 22.6587 201.334 24.4997C201.334 26.3406 199.842 27.833 198.001 27.833C196.16 27.833 194.667 26.3406 194.667 24.4997C194.667 22.6587 196.16 21.1663 198.001 21.1663ZM203.367 17.833C203.024 17.8413 202.697 17.9781 202.451 18.2163C202.203 18.4606 202.064 18.7937 202.064 19.1413C202.064 19.489 202.203 19.8221 202.451 20.0663C202.698 20.3032 203.025 20.4398 203.367 20.4497C203.711 20.4465 204.04 20.3089 204.284 20.0663V20.0497C204.654 19.678 204.764 19.1206 204.564 18.6362C204.363 18.1518 203.892 17.8351 203.367 17.833Z" fill="black"/>
<rect width="48" height="48" transform="translate(232 0.5)" fill="#ADADAD"/>
<path fill-rule="evenodd" clip-rule="evenodd" d="M242.666 11.9004C256.983 11.9004 268.599 23.5171 268.599 37.8337H263.883C263.883 26.1171 254.383 16.6171 242.666 16.6171V11.9004ZM242.666 21.3337C251.783 21.3337 259.166 28.7171 259.166 37.8337H254.449C254.449 31.3337 249.166 26.0504 242.666 26.0504V21.3337ZM246.299 30.5671C248.306 30.5671 249.933 32.1938 249.933 34.2004C249.933 36.207 248.306 37.8337 246.299 37.8337C244.293 37.8337 242.666 36.207 242.666 34.2004C242.666 32.1938 244.293 30.5671 246.299 30.5671Z" fill="black"/>
</svg>
