<svg width="280" height="49" viewBox="0 0 280 49" fill="none" xmlns="http://www.w3.org/2000/svg">
<rect width="48" height="48" transform="translate(0 0.5)" fill="#ADADAD"/>
<path fill-rule="evenodd" clip-rule="evenodd" d="M40.6668 24.4997C40.6668 15.2997 33.2002 7.83301 24.0002 7.83301C14.8002 7.83301 7.3335 15.2997 7.3335 24.4997C7.3335 32.5663 13.0668 39.283 20.6668 40.833V29.4997H17.3335V24.4997H20.6668V20.333C20.6668 17.1163 23.2835 14.4997 26.5002 14.4997H30.6668V19.4997H27.3335C26.4168 19.4997 25.6668 20.2497 25.6668 21.1663V24.4997H30.6668V29.4997H25.6668V41.083C34.0835 40.2497 40.6668 33.1497 40.6668 24.4997Z" fill="black"/>
<rect width="48" height="48" transform="translate(58 0.5)" fill="#ADADAD"/>
<path d="M82.0002 7.83301C72.7954 7.83301 65.3335 15.2949 65.3335 24.4997C65.3335 33.7044 72.7954 41.1663 82.0002 41.1663C91.2049 41.1663 98.6668 33.7044 98.6668 24.4997C98.6668 20.0794 96.9109 15.8402 93.7853 12.7146C90.6597 9.58896 86.4204 7.83301 82.0002 7.83301ZM90.3335 21.333C90.3335 21.4997 90.3335 21.683 90.3335 21.8497C90.3559 24.8888 89.1585 27.8099 87.0095 29.959C84.8604 32.108 81.9393 33.3054 78.9002 33.283C76.7189 33.2928 74.5819 32.6674 72.7502 31.483C73.0722 31.4996 73.3948 31.4996 73.7168 31.483C75.5241 31.5095 77.2869 30.9219 78.7168 29.8163C77.0084 29.7688 75.5172 28.6453 75.0002 27.0163C75.2509 27.0779 75.5087 27.106 75.7668 27.0997C76.121 27.0985 76.4736 27.0537 76.8168 26.9663C74.9701 26.5518 73.66 24.909 73.6668 23.0163C74.2222 23.3296 74.8461 23.5013 75.4835 23.5163C73.6742 22.3481 73.0957 19.9681 74.1668 18.0997C76.215 20.6308 79.2477 22.1653 82.5002 22.3163C82.4286 22.0158 82.3895 21.7085 82.3835 21.3997C82.3835 19.1813 84.1818 17.383 86.4002 17.383C87.5181 17.3707 88.5893 17.8306 89.3502 18.6497C90.2284 18.4674 91.0686 18.1348 91.8335 17.6663C91.5399 18.603 90.9108 19.3983 90.0668 19.8997C90.8687 19.8077 91.6508 19.5883 92.3835 19.2497C91.8282 20.0595 91.1342 20.7648 90.3335 21.333Z" fill="black"/>
<rect width="48" height="48" transform="translate(116 0.5)" fill="#ADADAD"/>
<path fill-rule="evenodd" clip-rule="evenodd" d="M140 7.83301C144.42 7.83301 148.66 9.58896 151.785 12.7146C154.911 15.8402 156.667 20.0794 156.667 24.4997C156.667 33.7044 149.205 41.1663 140 41.1663C130.795 41.1663 123.333 33.7044 123.333 24.4997C123.333 15.2949 130.795 7.83301 140 7.83301ZM141.306 17.4399L140 17.4497C137.389 17.4006 134.777 17.5286 132.183 17.833C131.307 18.0699 130.629 18.7666 130.417 19.6497C130.129 21.2501 129.99 22.8736 130 24.4997C129.987 26.1424 130.126 27.7828 130.417 29.3997C130.645 30.2635 131.32 30.9381 132.183 31.1663C134.776 31.4874 137.388 31.6322 140 31.5997C142.613 31.6322 145.224 31.4874 147.817 31.1663C148.694 30.9294 149.371 30.2327 149.583 29.3497C149.871 27.7492 150.011 26.1257 150 24.4997C150.014 22.857 149.874 21.2165 149.583 19.5997C149.355 18.7359 148.681 18.0612 147.817 17.833C145.223 17.5286 142.611 17.4006 140 17.4497L141.306 17.4399ZM137.95 21.533L143.183 24.4997L137.95 27.4663V21.533Z" fill="black"/>
<rect width="48" height="48" transform="translate(174 0.5)" fill="#ADADAD"/>
<path fill-rule="evenodd" clip-rule="evenodd" d="M198 7.83301C202.42 7.83301 206.66 9.58896 209.785 12.7146C212.911 15.8402 214.667 20.0794 214.667 24.4997C214.667 33.7044 207.205 41.1663 198 41.1663C188.795 41.1663 181.333 33.7044 181.333 24.4997C181.333 15.2949 188.795 7.83301 198 7.83301ZM202.483 14.4997H193.517C190.474 14.5088 188.009 16.9734 188 20.0163V28.983C188.009 32.026 190.474 34.4905 193.517 34.4997H202.483C205.526 34.4905 207.991 32.026 208 28.983V20.0163C207.991 16.9734 205.526 14.5088 202.483 14.4997ZM202.483 16.2663C204.555 16.2663 206.233 17.9453 206.233 20.0163V28.983L206.225 29.2398C206.093 31.1911 204.468 32.733 202.483 32.733H193.517C191.446 32.733 189.767 31.0541 189.767 28.983V20.0163C189.767 17.9453 191.446 16.2663 193.517 16.2663H202.483ZM198 19.3497C195.156 19.3497 192.85 21.6554 192.85 24.4997C192.85 27.3439 195.156 29.6497 198 29.6497C199.366 29.6497 200.676 29.1071 201.642 28.1413C202.608 27.1755 203.15 25.8655 203.15 24.4997C203.15 21.6554 200.844 19.3497 198 19.3497ZM198 21.1663C199.841 21.1663 201.333 22.6587 201.333 24.4997C201.333 26.3406 199.841 27.833 198 27.833C196.159 27.833 194.667 26.3406 194.667 24.4997C194.667 22.6587 196.159 21.1663 198 21.1663ZM203.367 17.833C203.024 17.8413 202.697 17.9781 202.45 18.2163C202.203 18.4606 202.064 18.7937 202.064 19.1413C202.064 19.489 202.203 19.8221 202.45 20.0663C202.698 20.3032 203.024 20.4398 203.367 20.4497C203.711 20.4465 204.04 20.3089 204.283 20.0663V20.0497C204.653 19.678 204.763 19.1206 204.563 18.6362C204.363 18.1518 203.891 17.8351 203.367 17.833Z" fill="black"/>
<rect width="48" height="48" transform="translate(232 0.5)" fill="#ADADAD"/>
<path fill-rule="evenodd" clip-rule="evenodd" d="M242.667 11.9004C256.983 11.9004 268.6 23.5171 268.6 37.8337H263.883C263.883 26.1171 254.383 16.6171 242.667 16.6171V11.9004ZM242.667 21.3337C251.783 21.3337 259.167 28.7171 259.167 37.8337H254.45C254.45 31.3337 249.167 26.0504 242.667 26.0504V21.3337ZM246.3 30.5671C248.306 30.5671 249.933 32.1938 249.933 34.2004C249.933 36.207 248.306 37.8337 246.3 37.8337C244.293 37.8337 242.667 36.207 242.667 34.2004C242.667 32.1938 244.293 30.5671 246.3 30.5671Z" fill="black"/>
</svg>
