<svg width="280" height="49" viewBox="0 0 280 49" fill="none" xmlns="http://www.w3.org/2000/svg">
<rect width="48" height="48" transform="translate(0 0.5)" fill="#ADADAD"/>
<path fill-rule="evenodd" clip-rule="evenodd" d="M40.6663 24.4997C40.6663 15.2997 33.1997 7.83301 23.9997 7.83301C14.7997 7.83301 7.33301 15.2997 7.33301 24.4997C7.33301 32.5663 13.0663 39.283 20.6663 40.833V29.4997H17.333V24.4997H20.6663V20.333C20.6663 17.1163 23.283 14.4997 26.4997 14.4997H30.6663V19.4997H27.333C26.4163 19.4997 25.6663 20.2497 25.6663 21.1663V24.4997H30.6663V29.4997H25.6663V41.083C34.083 40.2497 40.6663 33.1497 40.6663 24.4997Z" fill="black"/>
<rect width="48" height="48" transform="translate(58 0.5)" fill="#ADADAD"/>
<path d="M81.9997 7.83301C72.7949 7.83301 65.333 15.2949 65.333 24.4997C65.333 33.7044 72.7949 41.1663 81.9997 41.1663C91.2044 41.1663 98.6663 33.7044 98.6663 24.4997C98.6663 20.0794 96.9104 15.8402 93.7848 12.7146C90.6592 9.58896 86.42 7.83301 81.9997 7.83301ZM90.333 21.333C90.333 21.4997 90.333 21.683 90.333 21.8497C90.3554 24.8888 89.158 27.8099 87.009 29.959C84.8599 32.108 81.9388 33.3054 78.8997 33.283C76.7184 33.2928 74.5814 32.6674 72.7497 31.483C73.0717 31.4996 73.3943 31.4996 73.7163 31.483C75.5236 31.5095 77.2864 30.9219 78.7163 29.8163C77.0079 29.7688 75.5167 28.6453 74.9997 27.0163C75.2504 27.0779 75.5082 27.106 75.7663 27.0997C76.1205 27.0985 76.4731 27.0537 76.8163 26.9663C74.9696 26.5518 73.6595 24.909 73.6663 23.0163C74.2217 23.3296 74.8456 23.5013 75.483 23.5163C73.6737 22.3481 73.0952 19.9681 74.1663 18.0997C76.2145 20.6308 79.2472 22.1653 82.4997 22.3163C82.4281 22.0158 82.389 21.7085 82.383 21.3997C82.383 19.1813 84.1813 17.383 86.3997 17.383C87.5176 17.3707 88.5888 17.8306 89.3497 18.6497C90.2279 18.4674 91.0681 18.1348 91.833 17.6663C91.5394 18.603 90.9103 19.3983 90.0663 19.8997C90.8682 19.8077 91.6503 19.5883 92.383 19.2497C91.8277 20.0595 91.1337 20.7648 90.333 21.333Z" fill="black"/>
<rect width="48" height="48" transform="translate(116 0.5)" fill="#ADADAD"/>
<path fill-rule="evenodd" clip-rule="evenodd" d="M140 7.83301C144.42 7.83301 148.659 9.58896 151.785 12.7146C154.91 15.8402 156.666 20.0794 156.666 24.4997C156.666 33.7044 149.204 41.1663 140 41.1663C130.795 41.1663 123.333 33.7044 123.333 24.4997C123.333 15.2949 130.795 7.83301 140 7.83301ZM141.305 17.4399L140 17.4497C137.388 17.4006 134.777 17.5286 132.183 17.833C131.306 18.0699 130.629 18.7666 130.416 19.6497C130.129 21.2501 129.989 22.8736 130 24.4997C129.986 26.1424 130.126 27.7828 130.416 29.3997C130.645 30.2635 131.319 30.9381 132.183 31.1663C134.776 31.4874 137.387 31.6322 140 31.5997C142.612 31.6322 145.224 31.4874 147.816 31.1663C148.693 30.9294 149.371 30.2327 149.583 29.3497C149.871 27.7492 150.01 26.1257 150 24.4997C150.013 22.857 149.874 21.2165 149.583 19.5997C149.355 18.7359 148.68 18.0612 147.816 17.833C145.222 17.5286 142.611 17.4006 140 17.4497L141.305 17.4399ZM137.95 21.533L143.183 24.4997L137.95 27.4663V21.533Z" fill="black"/>
<rect width="48" height="48" transform="translate(174 0.5)" fill="#ADADAD"/>
<path fill-rule="evenodd" clip-rule="evenodd" d="M198 7.83301C202.42 7.83301 206.659 9.58896 209.785 12.7146C212.91 15.8402 214.666 20.0794 214.666 24.4997C214.666 33.7044 207.204 41.1663 198 41.1663C188.795 41.1663 181.333 33.7044 181.333 24.4997C181.333 15.2949 188.795 7.83301 198 7.83301ZM202.483 14.4997H193.516C190.473 14.5088 188.009 16.9734 188 20.0163V28.983C188.009 32.026 190.473 34.4905 193.516 34.4997H202.483C205.526 34.4905 207.991 32.026 208 28.983V20.0163C207.991 16.9734 205.526 14.5088 202.483 14.4997ZM202.483 16.2663C204.554 16.2663 206.233 17.9453 206.233 20.0163V28.983L206.224 29.2398C206.092 31.1911 204.468 32.733 202.483 32.733H193.516C191.445 32.733 189.766 31.0541 189.766 28.983V20.0163C189.766 17.9453 191.445 16.2663 193.516 16.2663H202.483ZM198 19.3497C195.155 19.3497 192.85 21.6554 192.85 24.4997C192.85 27.3439 195.155 29.6497 198 29.6497C199.366 29.6497 200.675 29.1071 201.641 28.1413C202.607 27.1755 203.15 25.8655 203.15 24.4997C203.15 21.6554 200.844 19.3497 198 19.3497ZM198 21.1663C199.841 21.1663 201.333 22.6587 201.333 24.4997C201.333 26.3406 199.841 27.833 198 27.833C196.159 27.833 194.666 26.3406 194.666 24.4997C194.666 22.6587 196.159 21.1663 198 21.1663ZM203.366 17.833C203.024 17.8413 202.696 17.9781 202.45 18.2163C202.202 18.4606 202.063 18.7937 202.063 19.1413C202.063 19.489 202.202 19.8221 202.45 20.0663C202.697 20.3032 203.024 20.4398 203.366 20.4497C203.71 20.4465 204.039 20.3089 204.283 20.0663V20.0497C204.653 19.678 204.763 19.1206 204.563 18.6362C204.362 18.1518 203.891 17.8351 203.366 17.833Z" fill="black"/>
<rect width="48" height="48" transform="translate(232 0.5)" fill="#ADADAD"/>
<path fill-rule="evenodd" clip-rule="evenodd" d="M242.667 11.9004C256.984 11.9004 268.6 23.5171 268.6 37.8337H263.884C263.884 26.1171 254.384 16.6171 242.667 16.6171V11.9004ZM242.667 21.3337C251.784 21.3337 259.167 28.7171 259.167 37.8337H254.45C254.45 31.3337 249.167 26.0504 242.667 26.0504V21.3337ZM246.3 30.5671C248.307 30.5671 249.934 32.1938 249.934 34.2004C249.934 36.207 248.307 37.8337 246.3 37.8337C244.294 37.8337 242.667 36.207 242.667 34.2004C242.667 32.1938 244.294 30.5671 246.3 30.5671Z" fill="black"/>
</svg>
