<svg width="280" height="49" viewBox="0 0 280 49" fill="none" xmlns="http://www.w3.org/2000/svg">
<rect width="48" height="48" transform="translate(0 0.5)" fill="#ADADAD"/>
<path fill-rule="evenodd" clip-rule="evenodd" d="M40.6668 24.5007C40.6668 15.3007 33.2002 7.83398 24.0002 7.83398C14.8002 7.83398 7.3335 15.3007 7.3335 24.5007C7.3335 32.5673 13.0668 39.284 20.6668 40.834V29.5007H17.3335V24.5007H20.6668V20.334C20.6668 17.1173 23.2835 14.5007 26.5002 14.5007H30.6668V19.5007H27.3335C26.4168 19.5007 25.6668 20.2507 25.6668 21.1673V24.5007H30.6668V29.5007H25.6668V41.084C34.0835 40.2507 40.6668 33.1507 40.6668 24.5007Z" fill="black"/>
<rect width="48" height="48" transform="translate(58 0.5)" fill="#ADADAD"/>
<path d="M82.0002 7.83398C72.7954 7.83398 65.3335 15.2959 65.3335 24.5007C65.3335 33.7054 72.7954 41.1673 82.0002 41.1673C91.2049 41.1673 98.6668 33.7054 98.6668 24.5007C98.6668 20.0804 96.9109 15.8411 93.7853 12.7155C90.6597 9.58993 86.4204 7.83398 82.0002 7.83398ZM90.3335 21.334C90.3335 21.5007 90.3335 21.684 90.3335 21.8507C90.3559 24.8898 89.1585 27.8109 87.0095 29.96C84.8604 32.109 81.9393 33.3064 78.9002 33.284C76.7189 33.2938 74.5819 32.6684 72.7502 31.484C73.0722 31.5006 73.3948 31.5006 73.7168 31.484C75.5241 31.5105 77.2869 30.9229 78.7168 29.8173C77.0084 29.7697 75.5172 28.6463 75.0002 27.0173C75.2509 27.0789 75.5087 27.1069 75.7668 27.1007C76.121 27.0994 76.4736 27.0547 76.8168 26.9673C74.9701 26.5528 73.66 24.91 73.6668 23.0173C74.2222 23.3306 74.8461 23.5023 75.4835 23.5173C73.6742 22.3491 73.0957 19.9691 74.1668 18.1007C76.215 20.6318 79.2477 22.1663 82.5002 22.3173C82.4286 22.0168 82.3895 21.7095 82.3835 21.4007C82.3835 19.1823 84.1818 17.384 86.4002 17.384C87.5181 17.3716 88.5893 17.8316 89.3502 18.6507C90.2284 18.4684 91.0686 18.1357 91.8335 17.6673C91.5399 18.604 90.9108 19.3993 90.0668 19.9007C90.8687 19.8087 91.6508 19.5892 92.3835 19.2507C91.8282 20.0604 91.1342 20.7657 90.3335 21.334Z" fill="black"/>
<rect width="48" height="48" transform="translate(116 0.5)" fill="#ADADAD"/>
<path fill-rule="evenodd" clip-rule="evenodd" d="M140 7.83398C144.42 7.83398 148.66 9.58993 151.785 12.7155C154.911 15.8411 156.667 20.0804 156.667 24.5007C156.667 33.7054 149.205 41.1673 140 41.1673C130.795 41.1673 123.333 33.7054 123.333 24.5007C123.333 15.2959 130.795 7.83398 140 7.83398ZM141.306 17.4409L140 17.4507C137.389 17.4015 134.777 17.5296 132.183 17.834C131.307 18.0709 130.629 18.7676 130.417 19.6507C130.129 21.2511 129.99 22.8746 130 24.5007C129.987 26.1434 130.126 27.7838 130.417 29.4007C130.645 30.2645 131.32 30.9391 132.183 31.1673C134.776 31.4884 137.388 31.6332 140 31.6007C142.613 31.6332 145.224 31.4884 147.817 31.1673C148.694 30.9304 149.371 30.2337 149.583 29.3507C149.871 27.7502 150.011 26.1267 150 24.5007C150.014 22.8579 149.874 21.2175 149.583 19.6007C149.355 18.7368 148.681 18.0622 147.817 17.834C145.223 17.5296 142.611 17.4015 140 17.4507L141.306 17.4409ZM137.95 21.534L143.183 24.5007L137.95 27.4673V21.534Z" fill="black"/>
<rect width="48" height="48" transform="translate(174 0.5)" fill="#ADADAD"/>
<path fill-rule="evenodd" clip-rule="evenodd" d="M198 7.83398C202.42 7.83398 206.66 9.58993 209.785 12.7155C212.911 15.8411 214.667 20.0804 214.667 24.5007C214.667 33.7054 207.205 41.1673 198 41.1673C188.795 41.1673 181.333 33.7054 181.333 24.5007C181.333 15.2959 188.795 7.83398 198 7.83398ZM202.483 14.5007H193.517C190.474 14.5098 188.009 16.9743 188 20.0173V28.984C188.009 32.027 190.474 34.4915 193.517 34.5007H202.483C205.526 34.4915 207.991 32.027 208 28.984V20.0173C207.991 16.9743 205.526 14.5098 202.483 14.5007ZM202.483 16.2673C204.555 16.2673 206.233 17.9463 206.233 20.0173V28.984L206.225 29.2407C206.093 31.192 204.468 32.734 202.483 32.734H193.517C191.446 32.734 189.767 31.0551 189.767 28.984V20.0173C189.767 17.9463 191.446 16.2673 193.517 16.2673H202.483ZM198 19.3507C195.156 19.3507 192.85 21.6564 192.85 24.5007C192.85 27.3449 195.156 29.6507 198 29.6507C199.366 29.6507 200.676 29.1081 201.642 28.1423C202.608 27.1764 203.15 25.8665 203.15 24.5007C203.15 21.6564 200.844 19.3507 198 19.3507ZM198 21.1673C199.841 21.1673 201.333 22.6597 201.333 24.5007C201.333 26.3416 199.841 27.834 198 27.834C196.159 27.834 194.667 26.3416 194.667 24.5007C194.667 22.6597 196.159 21.1673 198 21.1673ZM203.367 17.834C203.024 17.8422 202.697 17.9791 202.45 18.2173C202.203 18.4616 202.064 18.7947 202.064 19.1423C202.064 19.4899 202.203 19.8231 202.45 20.0673C202.698 20.3042 203.024 20.4408 203.367 20.4507C203.711 20.4475 204.04 20.3099 204.283 20.0673V20.0507C204.653 19.6789 204.763 19.1216 204.563 18.6372C204.363 18.1528 203.891 17.8361 203.367 17.834Z" fill="black"/>
<rect width="48" height="48" transform="translate(232 0.5)" fill="#ADADAD"/>
<path fill-rule="evenodd" clip-rule="evenodd" d="M242.667 11.9004C256.983 11.9004 268.6 23.5171 268.6 37.8337H263.883C263.883 26.1171 254.383 16.6171 242.667 16.6171V11.9004ZM242.667 21.3337C251.783 21.3337 259.167 28.7171 259.167 37.8337H254.45C254.45 31.3337 249.167 26.0504 242.667 26.0504V21.3337ZM246.3 30.5671C248.306 30.5671 249.933 32.1938 249.933 34.2004C249.933 36.207 248.306 37.8337 246.3 37.8337C244.293 37.8337 242.667 36.207 242.667 34.2004C242.667 32.1938 244.293 30.5671 246.3 30.5671Z" fill="black"/>
</svg>
