<svg width="280" height="49" viewBox="0 0 280 49" fill="none" xmlns="http://www.w3.org/2000/svg">
<rect width="48" height="48" transform="translate(0 0.5)" fill="#ADADAD"/>
<path fill-rule="evenodd" clip-rule="evenodd" d="M40.6666 24.5007C40.6666 15.3007 33.1999 7.83398 23.9999 7.83398C14.7999 7.83398 7.33325 15.3007 7.33325 24.5007C7.33325 32.5673 13.0666 39.284 20.6666 40.834V29.5007H17.3333V24.5007H20.6666V20.334C20.6666 17.1173 23.2833 14.5007 26.4999 14.5007H30.6666V19.5007H27.3333C26.4166 19.5007 25.6666 20.2507 25.6666 21.1673V24.5007H30.6666V29.5007H25.6666V41.084C34.0833 40.2507 40.6666 33.1507 40.6666 24.5007Z" fill="black"/>
<rect width="48" height="48" transform="translate(58 0.5)" fill="#ADADAD"/>
<path d="M81.9999 7.83398C72.7952 7.83398 65.3333 15.2959 65.3333 24.5007C65.3333 33.7054 72.7952 41.1673 81.9999 41.1673C91.2047 41.1673 98.6666 33.7054 98.6666 24.5007C98.6666 20.0804 96.9106 15.8411 93.785 12.7155C90.6594 9.58993 86.4202 7.83398 81.9999 7.83398ZM90.3333 21.334C90.3333 21.5007 90.3333 21.684 90.3333 21.8507C90.3556 24.8898 89.1583 27.8109 87.0092 29.96C84.8602 32.109 81.939 33.3064 78.8999 33.284C76.7186 33.2938 74.5817 32.6684 72.7499 31.484C73.0719 31.5006 73.3946 31.5006 73.7166 31.484C75.5239 31.5105 77.2866 30.9229 78.7166 29.8173C77.0082 29.7697 75.5169 28.6463 74.9999 27.0173C75.2507 27.0789 75.5085 27.1069 75.7666 27.1007C76.1207 27.0994 76.4734 27.0547 76.8166 26.9673C74.9699 26.5528 73.6597 24.91 73.6666 23.0173C74.2219 23.3306 74.8458 23.5023 75.4833 23.5173C73.6739 22.3491 73.0954 19.9691 74.1666 18.1007C76.2147 20.6318 79.2474 22.1663 82.4999 22.3173C82.4283 22.0168 82.3892 21.7095 82.3833 21.4007C82.3833 19.1823 84.1816 17.384 86.3999 17.384C87.5178 17.3716 88.589 17.8316 89.3499 18.6507C90.2282 18.4684 91.0683 18.1357 91.8333 17.6673C91.5397 18.604 90.9105 19.3993 90.0666 19.9007C90.8685 19.8087 91.6505 19.5892 92.3833 19.2507C91.828 20.0604 91.134 20.7657 90.3333 21.334Z" fill="black"/>
<rect width="48" height="48" transform="translate(116 0.5)" fill="#ADADAD"/>
<path fill-rule="evenodd" clip-rule="evenodd" d="M140 7.83398C144.42 7.83398 148.659 9.58993 151.785 12.7155C154.911 15.8411 156.667 20.0804 156.667 24.5007C156.667 33.7054 149.205 41.1673 140 41.1673C130.795 41.1673 123.333 33.7054 123.333 24.5007C123.333 15.2959 130.795 7.83398 140 7.83398ZM141.305 17.4409L140 17.4507C137.389 17.4015 134.777 17.5296 132.183 17.834C131.306 18.0709 130.629 18.7676 130.417 19.6507C130.129 21.2511 129.99 22.8746 130 24.5007C129.986 26.1434 130.126 27.7838 130.417 29.4007C130.645 30.2645 131.319 30.9391 132.183 31.1673C134.776 31.4884 137.388 31.6332 140 31.6007C142.612 31.6332 145.224 31.4884 147.817 31.1673C148.693 30.9304 149.371 30.2337 149.583 29.3507C149.871 27.7502 150.01 26.1267 150 24.5007C150.013 22.8579 149.874 21.2175 149.583 19.6007C149.355 18.7368 148.68 18.0622 147.817 17.834C145.223 17.5296 142.611 17.4015 140 17.4507L141.305 17.4409ZM137.95 21.534L143.183 24.5007L137.95 27.4673V21.534Z" fill="black"/>
<rect width="48" height="48" transform="translate(174 0.5)" fill="#ADADAD"/>
<path fill-rule="evenodd" clip-rule="evenodd" d="M198 7.83398C202.42 7.83398 206.659 9.58993 209.785 12.7155C212.911 15.8411 214.667 20.0804 214.667 24.5007C214.667 33.7054 207.205 41.1673 198 41.1673C188.795 41.1673 181.333 33.7054 181.333 24.5007C181.333 15.2959 188.795 7.83398 198 7.83398ZM202.483 14.5007H193.517C190.474 14.5098 188.009 16.9743 188 20.0173V28.984C188.009 32.027 190.474 34.4915 193.517 34.5007H202.483C205.526 34.4915 207.991 32.027 208 28.984V20.0173C207.991 16.9743 205.526 14.5098 202.483 14.5007ZM202.483 16.2673C204.554 16.2673 206.233 17.9463 206.233 20.0173V28.984L206.225 29.2407C206.093 31.192 204.468 32.734 202.483 32.734H193.517C191.446 32.734 189.767 31.0551 189.767 28.984V20.0173C189.767 17.9463 191.446 16.2673 193.517 16.2673H202.483ZM198 19.3507C195.156 19.3507 192.85 21.6564 192.85 24.5007C192.85 27.3449 195.156 29.6507 198 29.6507C199.366 29.6507 200.676 29.1081 201.642 28.1423C202.607 27.1764 203.15 25.8665 203.15 24.5007C203.15 21.6564 200.844 19.3507 198 19.3507ZM198 21.1673C199.841 21.1673 201.333 22.6597 201.333 24.5007C201.333 26.3416 199.841 27.834 198 27.834C196.159 27.834 194.667 26.3416 194.667 24.5007C194.667 22.6597 196.159 21.1673 198 21.1673ZM203.367 17.834C203.024 17.8422 202.697 17.9791 202.45 18.2173C202.203 18.4616 202.063 18.7947 202.063 19.1423C202.063 19.4899 202.203 19.8231 202.45 20.0673C202.697 20.3042 203.024 20.4408 203.367 20.4507C203.71 20.4475 204.039 20.3099 204.283 20.0673V20.0507C204.653 19.6789 204.763 19.1216 204.563 18.6372C204.362 18.1528 203.891 17.8361 203.367 17.834Z" fill="black"/>
<rect width="48" height="48" transform="translate(232 0.5)" fill="#ADADAD"/>
<path fill-rule="evenodd" clip-rule="evenodd" d="M242.667 11.9004C256.983 11.9004 268.6 23.5171 268.6 37.8337H263.883C263.883 26.1171 254.383 16.6171 242.667 16.6171V11.9004ZM242.667 21.3337C251.783 21.3337 259.167 28.7171 259.167 37.8337H254.45C254.45 31.3337 249.167 26.0504 242.667 26.0504V21.3337ZM246.3 30.5671C248.307 30.5671 249.933 32.1938 249.933 34.2004C249.933 36.207 248.307 37.8337 246.3 37.8337C244.293 37.8337 242.667 36.207 242.667 34.2004C242.667 32.1938 244.293 30.5671 246.3 30.5671Z" fill="black"/>
</svg>
