<svg width="34" height="46" viewBox="0 0 34 46" fill="none" xmlns="http://www.w3.org/2000/svg">
<mask id="path-1-inside-1_1_61883" fill="white">
<path fill-rule="evenodd" clip-rule="evenodd" d="M14.4153 0C15.1425 0.000564184 15.7318 0.591901 15.7321 1.32152L15.7319 5.47367C15.7318 6.20339 15.1423 6.79501 14.4152 6.7951C14.0516 6.79482 13.7224 6.64713 13.4842 6.40809C13.2459 6.16896 13.0986 5.83839 13.0985 5.47368L13.0985 1.32152C13.0986 0.591619 13.688 9.43274e-05 14.4153 0ZM33.9988 34.2293V28.1707C33.9988 26.7765 32.8726 25.6463 31.4833 25.6463C30.0941 25.6463 28.9679 26.7765 28.9679 28.1707H28.4648V26.6561C28.4648 25.2619 27.3387 24.1316 25.9494 24.1316C24.5601 24.1316 23.4339 25.2619 23.4339 26.6561V28.1707H22.9309V25.6463C22.9309 24.2521 21.8047 23.1219 20.4154 23.1219C19.0261 23.1219 17.9 24.2521 17.9 25.6463V28.1707H17.3969V15.5486C17.3969 14.1544 16.2707 13.0241 14.8815 13.0241C13.4922 13.0241 12.366 14.1544 12.366 15.5486V32.9666L10.3758 30.2202C9.55873 29.0926 7.98551 28.8433 6.86193 29.6633C5.73847 30.4833 5.49008 32.0622 6.30715 33.1897L14.3564 44.2972C14.5897 44.6192 14.8957 44.8813 15.2493 45.0619C15.6028 45.2426 15.994 45.3368 16.3907 45.3368H29.471C30.6383 45.3368 31.6523 44.5309 31.9196 43.3906L33.9319 34.8076C33.9764 34.618 33.9988 34.424 33.9988 34.2293ZM17.3969 33.2196H17.9V39.2782H17.3969V33.2196ZM22.9309 33.2196H23.4339V39.2782H22.9309V33.2196ZM28.4648 33.2196H28.9679V39.2782H28.4648V33.2196ZM8.70866 9.77638C9.22281 9.26039 9.22262 8.42371 8.70847 7.90773L5.78294 4.97174C5.26889 4.45585 4.43519 4.45547 3.92095 4.97155C3.40689 5.48744 3.40689 6.32431 3.92104 6.84029L6.84657 9.77628C7.36081 10.2922 8.1946 10.2923 8.70866 9.77638ZM1.31654 12.2815H5.45427C6.18148 12.2817 6.7709 12.8732 6.77081 13.6028C6.7709 14.3325 6.18129 14.9242 5.45418 14.9241L1.31644 14.9239C0.952929 14.9239 0.623818 14.7761 0.385632 14.5371C0.147166 14.2978 1.11966e-08 13.9676 1.11966e-08 13.6028C-9.38076e-05 12.8729 0.589418 12.2813 1.31654 12.2815ZM20.3261 9.06938C20.8402 9.58527 21.6741 9.58527 22.1882 9.06928L25.114 6.13301C25.6281 5.61712 25.6282 4.78035 25.114 4.26437C24.5999 3.74838 23.7663 3.74848 23.2521 4.26447L20.3262 7.20083C19.8122 7.71672 19.8119 8.5533 20.3261 9.06938ZM24.6547 14.924C24.2911 14.9241 23.9621 14.7761 23.7237 14.5368C23.4855 14.2978 23.338 13.9676 23.338 13.6027C23.338 12.873 23.9276 12.2813 24.6547 12.2813L28.792 12.2813C29.519 12.2811 30.1087 12.8729 30.1086 13.6026C30.1088 14.3324 29.5192 14.924 28.7919 14.9239L24.6547 14.924Z"/>
</mask>
<path fill-rule="evenodd" clip-rule="evenodd" d="M14.4153 0C15.1425 0.000564184 15.7318 0.591901 15.7321 1.32152L15.7319 5.47367C15.7318 6.20339 15.1423 6.79501 14.4152 6.7951C14.0516 6.79482 13.7224 6.64713 13.4842 6.40809C13.2459 6.16896 13.0986 5.83839 13.0985 5.47368L13.0985 1.32152C13.0986 0.591619 13.688 9.43274e-05 14.4153 0ZM33.9988 34.2293V28.1707C33.9988 26.7765 32.8726 25.6463 31.4833 25.6463C30.0941 25.6463 28.9679 26.7765 28.9679 28.1707H28.4648V26.6561C28.4648 25.2619 27.3387 24.1316 25.9494 24.1316C24.5601 24.1316 23.4339 25.2619 23.4339 26.6561V28.1707H22.9309V25.6463C22.9309 24.2521 21.8047 23.1219 20.4154 23.1219C19.0261 23.1219 17.9 24.2521 17.9 25.6463V28.1707H17.3969V15.5486C17.3969 14.1544 16.2707 13.0241 14.8815 13.0241C13.4922 13.0241 12.366 14.1544 12.366 15.5486V32.9666L10.3758 30.2202C9.55873 29.0926 7.98551 28.8433 6.86193 29.6633C5.73847 30.4833 5.49008 32.0622 6.30715 33.1897L14.3564 44.2972C14.5897 44.6192 14.8957 44.8813 15.2493 45.0619C15.6028 45.2426 15.994 45.3368 16.3907 45.3368H29.471C30.6383 45.3368 31.6523 44.5309 31.9196 43.3906L33.9319 34.8076C33.9764 34.618 33.9988 34.424 33.9988 34.2293ZM17.3969 33.2196H17.9V39.2782H17.3969V33.2196ZM22.9309 33.2196H23.4339V39.2782H22.9309V33.2196ZM28.4648 33.2196H28.9679V39.2782H28.4648V33.2196ZM8.70866 9.77638C9.22281 9.26039 9.22262 8.42371 8.70847 7.90773L5.78294 4.97174C5.26889 4.45585 4.43519 4.45547 3.92095 4.97155C3.40689 5.48744 3.40689 6.32431 3.92104 6.84029L6.84657 9.77628C7.36081 10.2922 8.1946 10.2923 8.70866 9.77638ZM1.31654 12.2815H5.45427C6.18148 12.2817 6.7709 12.8732 6.77081 13.6028C6.7709 14.3325 6.18129 14.9242 5.45418 14.9241L1.31644 14.9239C0.952929 14.9239 0.623818 14.7761 0.385632 14.5371C0.147166 14.2978 1.11966e-08 13.9676 1.11966e-08 13.6028C-9.38076e-05 12.8729 0.589418 12.2813 1.31654 12.2815ZM20.3261 9.06938C20.8402 9.58527 21.6741 9.58527 22.1882 9.06928L25.114 6.13301C25.6281 5.61712 25.6282 4.78035 25.114 4.26437C24.5999 3.74838 23.7663 3.74848 23.2521 4.26447L20.3262 7.20083C19.8122 7.71672 19.8119 8.5533 20.3261 9.06938ZM24.6547 14.924C24.2911 14.9241 23.9621 14.7761 23.7237 14.5368C23.4855 14.2978 23.338 13.9676 23.338 13.6027C23.338 12.873 23.9276 12.2813 24.6547 12.2813L28.792 12.2813C29.519 12.2811 30.1087 12.8729 30.1086 13.6026C30.1088 14.3324 29.5192 14.924 28.7919 14.9239L24.6547 14.924Z" fill="#FA9441"/>
<path d="M15.7321 1.32152L16.2321 1.32155L16.2321 1.32127L15.7321 1.32152ZM14.4153 0L14.4157 -0.5L14.4152 -0.5L14.4153 0ZM15.7319 5.47367L16.2319 5.47374L16.2319 5.4737L15.7319 5.47367ZM14.4152 6.7951L14.4148 7.2951L14.4153 7.2951L14.4152 6.7951ZM13.4842 6.40809L13.8384 6.05517L13.8384 6.05517L13.4842 6.40809ZM13.0985 5.47368L12.5985 5.47368L12.5985 5.4738L13.0985 5.47368ZM13.0985 1.32152L12.5985 1.32146L12.5985 1.32152L13.0985 1.32152ZM28.9679 28.1707V28.6707H29.4679V28.1707H28.9679ZM28.4648 28.1707H27.9648V28.6707H28.4648V28.1707ZM23.4339 28.1707V28.6707H23.9339V28.1707H23.4339ZM22.9309 28.1707H22.4309V28.6707H22.9309V28.1707ZM17.9 28.1707V28.6707H18.4V28.1707H17.9ZM17.3969 28.1707H16.8969V28.6707H17.3969V28.1707ZM12.366 32.9666L11.9611 33.26L12.866 34.5087V32.9666H12.366ZM10.3758 30.2202L10.7807 29.9268L10.7807 29.9268L10.3758 30.2202ZM6.86193 29.6633L6.56716 29.2595L6.56716 29.2595L6.86193 29.6633ZM6.30715 33.1897L5.90228 33.4831L5.90228 33.4831L6.30715 33.1897ZM14.3564 44.2972L13.9515 44.5906L13.9515 44.5906L14.3564 44.2972ZM15.2493 45.0619L15.4768 44.6167L15.4768 44.6167L15.2493 45.0619ZM16.3907 45.3368L16.3907 45.8368H16.3907V45.3368ZM31.9196 43.3906L31.4328 43.2765L31.4328 43.2765L31.9196 43.3906ZM33.9319 34.8076L33.4451 34.6934L33.4451 34.6934L33.9319 34.8076ZM17.9 33.2196H18.4V32.7196H17.9V33.2196ZM17.3969 33.2196V32.7196H16.8969V33.2196H17.3969ZM17.9 39.2782V39.7782H18.4V39.2782H17.9ZM17.3969 39.2782H16.8969V39.7782H17.3969V39.2782ZM23.4339 33.2196H23.9339V32.7196H23.4339V33.2196ZM22.9309 33.2196V32.7196H22.4309V33.2196H22.9309ZM23.4339 39.2782V39.7782H23.9339V39.2782H23.4339ZM22.9309 39.2782H22.4309V39.7782H22.9309V39.2782ZM28.9679 33.2196H29.4679V32.7196H28.9679V33.2196ZM28.4648 33.2196V32.7196H27.9648V33.2196H28.4648ZM28.9679 39.2782V39.7782H29.4679V39.2782H28.9679ZM28.4648 39.2782H27.9648V39.7782H28.4648V39.2782ZM8.70847 7.90773L9.06265 7.55481L9.06265 7.55481L8.70847 7.90773ZM8.70866 9.77638L8.35447 9.42345L8.35447 9.42345L8.70866 9.77638ZM5.78294 4.97174L6.13712 4.61882L6.13712 4.61882L5.78294 4.97174ZM3.92095 4.97155L4.27513 5.32447L4.27513 5.32447L3.92095 4.97155ZM3.92104 6.84029L4.27522 6.48737L4.27522 6.48737L3.92104 6.84029ZM6.84657 9.77628L6.49239 10.1292L6.49245 10.1293L6.84657 9.77628ZM5.45427 12.2815L5.4544 11.7815H5.45427V12.2815ZM1.31654 12.2815L1.31634 12.7815H1.31654V12.2815ZM6.77081 13.6028L6.27081 13.6027L6.27081 13.6028L6.77081 13.6028ZM5.45418 14.9241L5.45424 14.4241L5.4542 14.4241L5.45418 14.9241ZM1.31644 14.9239L1.31646 14.4239H1.31644V14.9239ZM0.385632 14.5371L0.739816 14.1842L0.739816 14.1842L0.385632 14.5371ZM1.11966e-08 13.6028L0.5 13.6028L0.5 13.6027L1.11966e-08 13.6028ZM22.1882 9.06928L22.5424 9.4222L22.5424 9.4222L22.1882 9.06928ZM20.3261 9.06938L19.9719 9.4223L19.9719 9.4223L20.3261 9.06938ZM25.114 6.13301L24.7598 5.78009L24.7598 5.78009L25.114 6.13301ZM25.114 4.26437L24.7598 4.61729L24.7598 4.61729L25.114 4.26437ZM23.2521 4.26447L22.8979 3.91154L22.8979 3.91154L23.2521 4.26447ZM20.3262 7.20083L20.6804 7.55375L20.6804 7.55375L20.3262 7.20083ZM23.7237 14.5368L24.0779 14.1839L24.0779 14.1839L23.7237 14.5368ZM24.6547 14.924L24.6547 14.424L24.6545 14.424L24.6547 14.924ZM23.338 13.6027L23.838 13.6028L23.838 13.6026L23.338 13.6027ZM24.6547 12.2813L24.6546 12.7813L24.6547 12.7813L24.6547 12.2813ZM28.792 12.2813L28.792 12.7813L28.7922 12.7813L28.792 12.2813ZM30.1086 13.6026L29.6086 13.6025L29.6086 13.6027L30.1086 13.6026ZM28.7919 14.9239L28.792 14.4239L28.7919 14.4239L28.7919 14.9239ZM16.2321 1.32127C16.2316 0.317313 15.4204 -0.49922 14.4157 -0.5L14.4149 0.5C14.8647 0.500349 15.2319 0.866489 15.2321 1.32178L16.2321 1.32127ZM16.2319 5.4737L16.2321 1.32155L15.2321 1.3215L15.2319 5.47365L16.2319 5.4737ZM14.4153 7.2951C15.4202 7.29497 16.2318 6.47786 16.2319 5.47374L15.2319 5.47361C15.2319 5.92892 14.8645 6.29505 14.4152 6.2951L14.4153 7.2951ZM13.13 6.76101C13.4582 7.09035 13.9132 7.29471 14.4148 7.2951L14.4156 6.2951C14.19 6.29493 13.9866 6.20391 13.8384 6.05517L13.13 6.76101ZM12.5985 5.4738C12.5986 5.97571 12.8019 6.43175 13.13 6.76101L13.8384 6.05517C13.6899 5.90617 13.5986 5.70108 13.5985 5.47355L12.5985 5.4738ZM12.5985 1.32152L12.5985 5.47368L13.5985 5.47368L13.5985 1.32152L12.5985 1.32152ZM14.4152 -0.5C13.4102 -0.49987 12.5986 0.317146 12.5985 1.32146L13.5985 1.32159C13.5986 0.866093 13.9658 0.500058 14.4154 0.5L14.4152 -0.5ZM33.4988 28.1707V34.2293H34.4988V28.1707H33.4988ZM31.4833 26.1463C32.5948 26.1463 33.4988 27.051 33.4988 28.1707H34.4988C34.4988 26.5021 33.1504 25.1463 31.4833 25.1463V26.1463ZM29.4679 28.1707C29.4679 27.051 30.3719 26.1463 31.4833 26.1463V25.1463C29.8162 25.1463 28.4679 26.5021 28.4679 28.1707H29.4679ZM28.4648 28.6707H28.9679V27.6707H28.4648V28.6707ZM27.9648 26.6561V28.1707H28.9648V26.6561H27.9648ZM25.9494 24.6316C27.0608 24.6316 27.9648 25.5363 27.9648 26.6561H28.9648C28.9648 24.9874 27.6165 23.6316 25.9494 23.6316V24.6316ZM23.9339 26.6561C23.9339 25.5363 24.8379 24.6316 25.9494 24.6316V23.6316C24.2823 23.6316 22.9339 24.9874 22.9339 26.6561H23.9339ZM23.9339 28.1707V26.6561H22.9339V28.1707H23.9339ZM22.9309 28.6707H23.4339V27.6707H22.9309V28.6707ZM22.4309 25.6463V28.1707H23.4309V25.6463H22.4309ZM20.4154 23.6219C21.5269 23.6219 22.4309 24.5266 22.4309 25.6463H23.4309C23.4309 23.9777 22.0825 22.6219 20.4154 22.6219V23.6219ZM18.4 25.6463C18.4 24.5266 19.304 23.6219 20.4154 23.6219V22.6219C18.7483 22.6219 17.4 23.9777 17.4 25.6463H18.4ZM18.4 28.1707V25.6463H17.4V28.1707H18.4ZM17.3969 28.6707H17.9V27.6707H17.3969V28.6707ZM16.8969 15.5486V28.1707H17.8969V15.5486H16.8969ZM14.8815 13.5241C15.9929 13.5241 16.8969 14.4288 16.8969 15.5486H17.8969C17.8969 13.8799 16.5486 12.5241 14.8815 12.5241V13.5241ZM12.866 15.5486C12.866 14.4288 13.77 13.5241 14.8815 13.5241V12.5241C13.2144 12.5241 11.866 13.8799 11.866 15.5486H12.866ZM12.866 32.9666V15.5486H11.866V32.9666H12.866ZM9.97093 30.5136L11.9611 33.26L12.7709 32.6732L10.7807 29.9268L9.97093 30.5136ZM7.1567 30.0672C8.05627 29.4107 9.31598 29.6097 9.97094 30.5136L10.7807 29.9268C9.80148 28.5755 7.91476 28.2759 6.56716 29.2595L7.1567 30.0672ZM6.71202 32.8963C6.05628 31.9914 6.25618 30.7245 7.15671 30.0672L6.56716 29.2595C5.22077 30.2422 4.92387 32.1329 5.90228 33.4831L6.71202 32.8963ZM14.7612 44.0038L6.71202 32.8963L5.90228 33.4831L13.9515 44.5906L14.7612 44.0038ZM15.4768 44.6167C15.1936 44.472 14.9484 44.262 14.7612 44.0038L13.9515 44.5906C14.2311 44.9764 14.5978 45.2905 15.0217 45.5072L15.4768 44.6167ZM16.3907 44.8368C16.0731 44.8368 15.76 44.7614 15.4768 44.6167L15.0217 45.5072C15.4457 45.7238 15.9148 45.8368 16.3907 45.8368L16.3907 44.8368ZM29.471 44.8368H16.3907V45.8368H29.471V44.8368ZM31.4328 43.2765C31.2182 44.1918 30.405 44.8368 29.471 44.8368V45.8368C30.8716 45.8368 32.0863 44.87 32.4064 43.5047L31.4328 43.2765ZM33.4451 34.6934L31.4328 43.2765L32.4064 43.5048L34.4187 34.9217L33.4451 34.6934ZM33.4988 34.2293C33.4988 34.3857 33.4808 34.5414 33.4451 34.6934L34.4187 34.9218C34.472 34.6947 34.4988 34.4623 34.4988 34.2293H33.4988ZM17.9 32.7196H17.3969V33.7196H17.9V32.7196ZM18.4 39.2782V33.2196H17.4V39.2782H18.4ZM17.3969 39.7782H17.9V38.7782H17.3969V39.7782ZM16.8969 33.2196V39.2782H17.8969V33.2196H16.8969ZM23.4339 32.7196H22.9309V33.7196H23.4339V32.7196ZM23.9339 39.2782V33.2196H22.9339V39.2782H23.9339ZM22.9309 39.7782H23.4339V38.7782H22.9309V39.7782ZM22.4309 33.2196V39.2782H23.4309V33.2196H22.4309ZM28.9679 32.7196H28.4648V33.7196H28.9679V32.7196ZM29.4679 39.2782V33.2196H28.4679V39.2782H29.4679ZM28.4648 39.7782H28.9679V38.7782H28.4648V39.7782ZM27.9648 33.2196V39.2782H28.9648V33.2196H27.9648ZM8.35429 8.26065C8.6741 8.58161 8.67411 9.10268 8.35447 9.42345L9.06284 10.1293C9.7715 9.4181 9.77113 8.26582 9.06265 7.55481L8.35429 8.26065ZM5.42876 5.32466L8.35429 8.26065L9.06265 7.55481L6.13712 4.61882L5.42876 5.32466ZM4.27513 5.32447C4.59383 5.00464 5.10997 5.00473 5.42876 5.32466L6.13712 4.61882C5.4278 3.90696 4.27655 3.9063 3.56676 4.61863L4.27513 5.32447ZM4.27522 6.48737C3.95548 6.16648 3.95552 5.64522 4.27513 5.32447L3.56676 4.61863C2.85827 5.32966 2.85831 6.48214 3.56686 7.19321L4.27522 6.48737ZM7.20076 9.42336L4.27522 6.48737L3.56686 7.19321L6.49239 10.1292L7.20076 9.42336ZM8.35447 9.42345C8.03591 9.74316 7.51962 9.74325 7.20069 9.4233L6.49245 10.1293C7.202 10.8411 8.3533 10.8414 9.06284 10.1293L8.35447 9.42345ZM5.45427 11.7815H1.31654V12.7815H5.45427V11.7815ZM7.27081 13.6028C7.27094 12.5987 6.45923 11.7818 5.4544 11.7815L5.45414 12.7815C5.90374 12.7816 6.27086 13.1478 6.27081 13.6027L7.27081 13.6028ZM5.45411 15.4241C6.4591 15.4242 7.27094 14.6069 7.27081 13.6027L6.27081 13.6028C6.27086 14.058 5.90348 14.4242 5.45424 14.4241L5.45411 15.4241ZM1.31642 15.4239L5.45415 15.4241L5.4542 14.4241L1.31646 14.4239L1.31642 15.4239ZM0.0314484 14.89C0.359492 15.2192 0.814503 15.4239 1.31644 15.4239V14.4239C1.09136 14.4239 0.888144 14.333 0.739816 14.1842L0.0314484 14.89ZM-0.5 13.6028C-0.5 14.1049 -0.296825 14.5606 0.0314491 14.89L0.739816 14.1842C0.591157 14.035 0.5 13.8303 0.5 13.6028H-0.5ZM1.31673 11.7815C0.311565 11.7811 -0.500129 12.5985 -0.5 13.6028L0.5 13.6027C0.499941 13.1472 0.86727 12.7814 1.31634 12.7815L1.31673 11.7815ZM21.834 8.71636C21.5153 9.03627 20.9989 9.03622 20.6803 8.71646L19.9719 9.4223C20.6814 10.1343 21.8329 10.1343 22.5424 9.4222L21.834 8.71636ZM24.7598 5.78009L21.834 8.71636L22.5424 9.4222L25.4682 6.48593L24.7598 5.78009ZM24.7598 4.61729C25.0795 4.93813 25.0795 5.45929 24.7598 5.78009L25.4682 6.48593C26.1766 5.77495 26.1768 4.62257 25.4682 3.91145L24.7598 4.61729ZM23.6063 4.61739C23.9251 4.29746 24.4411 4.29746 24.7598 4.61729L25.4682 3.91145C24.7586 3.19931 23.6074 3.1995 22.8979 3.91154L23.6063 4.61739ZM20.6804 7.55375L23.6063 4.61739L22.8979 3.91154L19.972 6.84791L20.6804 7.55375ZM20.6803 8.71646C20.3606 8.39559 20.3607 7.87462 20.6804 7.55375L19.972 6.84791C19.2637 7.55882 19.2632 8.71101 19.9719 9.4223L20.6803 8.71646ZM23.3695 14.8897C23.6976 15.219 24.1524 15.4241 24.6548 15.424L24.6545 14.424C24.4298 14.4241 24.2267 14.3333 24.0779 14.1839L23.3695 14.8897ZM22.838 13.6026C22.8379 14.1051 23.0417 14.5608 23.3695 14.8897L24.0779 14.1839C23.9293 14.0348 23.838 13.8301 23.838 13.6028L22.838 13.6026ZM24.6547 11.7813C23.6498 11.7812 22.8379 12.5985 22.838 13.6027L23.838 13.6026C23.838 13.1474 24.2054 12.7813 24.6546 12.7813L24.6547 11.7813ZM28.792 11.7813L24.6547 11.7813L24.6547 12.7813L28.792 12.7813L28.792 11.7813ZM30.6086 13.6026C30.6087 12.5985 29.7968 11.781 28.7918 11.7813L28.7922 12.7813C29.2411 12.7812 29.6086 13.1472 29.6086 13.6025L30.6086 13.6026ZM28.7919 15.4239C29.797 15.424 30.6088 14.6069 30.6086 13.6025L29.6086 13.6027C29.6087 14.0579 29.2415 14.424 28.792 14.4239L28.7919 15.4239ZM24.6547 15.424L28.792 15.4239L28.7919 14.4239L24.6547 14.424L24.6547 15.424Z" fill="#F0F0F0" mask="url(#path-1-inside-1_1_61883)"/>
</svg>
