<svg width="34" height="46" viewBox="0 0 34 46" fill="none" xmlns="http://www.w3.org/2000/svg">
<mask id="path-1-inside-1_1_79570" fill="white">
<path fill-rule="evenodd" clip-rule="evenodd" d="M14.4153 -0.000976562C15.1425 -0.000412378 15.7318 0.590924 15.7321 1.32055L15.7319 5.4727C15.7318 6.20241 15.1423 6.79403 14.4152 6.79413C14.0516 6.79385 13.7224 6.64615 13.4842 6.40712C13.2459 6.16798 13.0986 5.83742 13.0985 5.4727L13.0985 1.32055C13.0986 0.590643 13.688 -0.000882235 14.4153 -0.000976562ZM33.9988 34.2284V28.1697C33.9988 26.7756 32.8726 25.6453 31.4833 25.6453C30.0941 25.6453 28.9679 26.7756 28.9679 28.1697H28.4648V26.6551C28.4648 25.2609 27.3387 24.1307 25.9494 24.1307C24.5601 24.1307 23.4339 25.2609 23.4339 26.6551V28.1697H22.9309V25.6453C22.9309 24.2511 21.8047 23.1209 20.4154 23.1209C19.0261 23.1209 17.9 24.2511 17.9 25.6453V28.1697H17.3969V15.5476C17.3969 14.1534 16.2707 13.0232 14.8815 13.0232C13.4922 13.0232 12.366 14.1534 12.366 15.5476V32.9657L10.3758 30.2192C9.55873 29.0917 7.98551 28.8423 6.86193 29.6624C5.73847 30.4824 5.49008 32.0612 6.30715 33.1887L14.3564 44.2962C14.5897 44.6182 14.8957 44.8803 15.2493 45.061C15.6028 45.2417 15.994 45.3358 16.3907 45.3359H29.471C30.6383 45.3359 31.6523 44.5299 31.9196 43.3896L33.9319 34.8066C33.9764 34.6171 33.9988 34.423 33.9988 34.2284ZM17.3969 33.2186H17.9V39.2772H17.3969V33.2186ZM22.9309 33.2186H23.4339V39.2772H22.9309V33.2186ZM28.4648 33.2186H28.9679V39.2772H28.4648V33.2186ZM8.70866 9.7754C9.22281 9.25941 9.22262 8.42274 8.70847 7.90675L5.78294 4.97076C5.26889 4.45487 4.43519 4.45449 3.92095 4.97057C3.40689 5.48646 3.40689 6.32333 3.92104 6.83932L6.84657 9.77531C7.36081 10.2912 8.1946 10.2913 8.70866 9.7754ZM1.31654 12.2806H5.45427C6.18148 12.2807 6.7709 12.8723 6.77081 13.6018C6.7709 14.3315 6.18129 14.9232 5.45418 14.9231L1.31644 14.9229C0.952929 14.9229 0.623818 14.7752 0.385632 14.5361C0.147166 14.2968 1.11966e-08 13.9666 1.11966e-08 13.6018C-9.38076e-05 12.8719 0.589418 12.2803 1.31654 12.2806ZM20.3261 9.0684C20.8402 9.58429 21.6741 9.58429 22.1882 9.06831L25.114 6.13203C25.6281 5.61614 25.6282 4.77937 25.114 4.26339C24.5999 3.74741 23.7663 3.7475 23.2521 4.26349L20.3262 7.19985C19.8122 7.71574 19.8119 8.55233 20.3261 9.0684ZM24.6547 14.923C24.2911 14.9231 23.9621 14.7752 23.7237 14.5358C23.4855 14.2968 23.338 13.9666 23.338 13.6017C23.338 12.872 23.9276 12.2803 24.6547 12.2804L28.792 12.2804C29.519 12.2801 30.1087 12.8719 30.1086 13.6016C30.1088 14.3314 29.5192 14.923 28.7919 14.9229L24.6547 14.923Z"/>
</mask>
<path fill-rule="evenodd" clip-rule="evenodd" d="M14.4153 -0.000976562C15.1425 -0.000412378 15.7318 0.590924 15.7321 1.32055L15.7319 5.4727C15.7318 6.20241 15.1423 6.79403 14.4152 6.79413C14.0516 6.79385 13.7224 6.64615 13.4842 6.40712C13.2459 6.16798 13.0986 5.83742 13.0985 5.4727L13.0985 1.32055C13.0986 0.590643 13.688 -0.000882235 14.4153 -0.000976562ZM33.9988 34.2284V28.1697C33.9988 26.7756 32.8726 25.6453 31.4833 25.6453C30.0941 25.6453 28.9679 26.7756 28.9679 28.1697H28.4648V26.6551C28.4648 25.2609 27.3387 24.1307 25.9494 24.1307C24.5601 24.1307 23.4339 25.2609 23.4339 26.6551V28.1697H22.9309V25.6453C22.9309 24.2511 21.8047 23.1209 20.4154 23.1209C19.0261 23.1209 17.9 24.2511 17.9 25.6453V28.1697H17.3969V15.5476C17.3969 14.1534 16.2707 13.0232 14.8815 13.0232C13.4922 13.0232 12.366 14.1534 12.366 15.5476V32.9657L10.3758 30.2192C9.55873 29.0917 7.98551 28.8423 6.86193 29.6624C5.73847 30.4824 5.49008 32.0612 6.30715 33.1887L14.3564 44.2962C14.5897 44.6182 14.8957 44.8803 15.2493 45.061C15.6028 45.2417 15.994 45.3358 16.3907 45.3359H29.471C30.6383 45.3359 31.6523 44.5299 31.9196 43.3896L33.9319 34.8066C33.9764 34.6171 33.9988 34.423 33.9988 34.2284ZM17.3969 33.2186H17.9V39.2772H17.3969V33.2186ZM22.9309 33.2186H23.4339V39.2772H22.9309V33.2186ZM28.4648 33.2186H28.9679V39.2772H28.4648V33.2186ZM8.70866 9.7754C9.22281 9.25941 9.22262 8.42274 8.70847 7.90675L5.78294 4.97076C5.26889 4.45487 4.43519 4.45449 3.92095 4.97057C3.40689 5.48646 3.40689 6.32333 3.92104 6.83932L6.84657 9.77531C7.36081 10.2912 8.1946 10.2913 8.70866 9.7754ZM1.31654 12.2806H5.45427C6.18148 12.2807 6.7709 12.8723 6.77081 13.6018C6.7709 14.3315 6.18129 14.9232 5.45418 14.9231L1.31644 14.9229C0.952929 14.9229 0.623818 14.7752 0.385632 14.5361C0.147166 14.2968 1.11966e-08 13.9666 1.11966e-08 13.6018C-9.38076e-05 12.8719 0.589418 12.2803 1.31654 12.2806ZM20.3261 9.0684C20.8402 9.58429 21.6741 9.58429 22.1882 9.06831L25.114 6.13203C25.6281 5.61614 25.6282 4.77937 25.114 4.26339C24.5999 3.74741 23.7663 3.7475 23.2521 4.26349L20.3262 7.19985C19.8122 7.71574 19.8119 8.55233 20.3261 9.0684ZM24.6547 14.923C24.2911 14.9231 23.9621 14.7752 23.7237 14.5358C23.4855 14.2968 23.338 13.9666 23.338 13.6017C23.338 12.872 23.9276 12.2803 24.6547 12.2804L28.792 12.2804C29.519 12.2801 30.1087 12.8719 30.1086 13.6016C30.1088 14.3314 29.5192 14.923 28.7919 14.9229L24.6547 14.923Z" fill="#FA9441"/>
<path d="M15.7321 1.32055L16.2321 1.32057L16.2321 1.32029L15.7321 1.32055ZM14.4153 -0.000976562L14.4157 -0.500977L14.4152 -0.500977L14.4153 -0.000976562ZM15.7319 5.4727L16.2319 5.47276L16.2319 5.47272L15.7319 5.4727ZM14.4152 6.79413L14.4148 7.29413L14.4153 7.29413L14.4152 6.79413ZM13.4842 6.40712L13.8384 6.05419L13.8384 6.05419L13.4842 6.40712ZM13.0985 5.4727L12.5985 5.4727L12.5985 5.47283L13.0985 5.4727ZM13.0985 1.32055L12.5985 1.32048L12.5985 1.32055L13.0985 1.32055ZM28.9679 28.1697V28.6697H29.4679V28.1697H28.9679ZM28.4648 28.1697H27.9648V28.6697H28.4648V28.1697ZM23.4339 28.1697V28.6697H23.9339V28.1697H23.4339ZM22.9309 28.1697H22.4309V28.6697H22.9309V28.1697ZM17.9 28.1697V28.6697H18.4V28.1697H17.9ZM17.3969 28.1697H16.8969V28.6697H17.3969V28.1697ZM12.366 32.9657L11.9611 33.259L12.866 34.5077V32.9657H12.366ZM10.3758 30.2192L10.7807 29.9258L10.7807 29.9258L10.3758 30.2192ZM6.86193 29.6624L6.56716 29.2585L6.56716 29.2585L6.86193 29.6624ZM6.30715 33.1887L5.90228 33.4821L5.90228 33.4821L6.30715 33.1887ZM14.3564 44.2962L13.9515 44.5896L13.9515 44.5897L14.3564 44.2962ZM15.2493 45.061L15.4768 44.6157L15.4768 44.6157L15.2493 45.061ZM16.3907 45.3359L16.3907 45.8359H16.3907V45.3359ZM31.9196 43.3896L31.4328 43.2755L31.4328 43.2755L31.9196 43.3896ZM33.9319 34.8066L33.4451 34.6924L33.4451 34.6925L33.9319 34.8066ZM17.9 33.2186H18.4V32.7186H17.9V33.2186ZM17.3969 33.2186V32.7186H16.8969V33.2186H17.3969ZM17.9 39.2772V39.7772H18.4V39.2772H17.9ZM17.3969 39.2772H16.8969V39.7772H17.3969V39.2772ZM23.4339 33.2186H23.9339V32.7186H23.4339V33.2186ZM22.9309 33.2186V32.7186H22.4309V33.2186H22.9309ZM23.4339 39.2772V39.7772H23.9339V39.2772H23.4339ZM22.9309 39.2772H22.4309V39.7772H22.9309V39.2772ZM28.9679 33.2186H29.4679V32.7186H28.9679V33.2186ZM28.4648 33.2186V32.7186H27.9648V33.2186H28.4648ZM28.9679 39.2772V39.7772H29.4679V39.2772H28.9679ZM28.4648 39.2772H27.9648V39.7772H28.4648V39.2772ZM8.70847 7.90675L9.06265 7.55383L9.06265 7.55383L8.70847 7.90675ZM8.70866 9.7754L8.35447 9.42248L8.35447 9.42248L8.70866 9.7754ZM5.78294 4.97076L6.13712 4.61784L6.13712 4.61784L5.78294 4.97076ZM3.92095 4.97057L4.27513 5.3235L4.27513 5.3235L3.92095 4.97057ZM3.92104 6.83932L4.27522 6.48639L4.27522 6.48639L3.92104 6.83932ZM6.84657 9.77531L6.49239 10.1282L6.49245 10.1283L6.84657 9.77531ZM5.45427 12.2806L5.4544 11.7806H5.45427V12.2806ZM1.31654 12.2806L1.31634 12.7806H1.31654V12.2806ZM6.77081 13.6018L6.27081 13.6017L6.27081 13.6019L6.77081 13.6018ZM5.45418 14.9231L5.45424 14.4231L5.4542 14.4231L5.45418 14.9231ZM1.31644 14.9229L1.31646 14.4229H1.31644V14.9229ZM0.385632 14.5361L0.739816 14.1832L0.739816 14.1832L0.385632 14.5361ZM1.11966e-08 13.6018L0.5 13.6018L0.5 13.6017L1.11966e-08 13.6018ZM22.1882 9.06831L22.5424 9.42123L22.5424 9.42123L22.1882 9.06831ZM20.3261 9.0684L19.9719 9.42133L19.9719 9.42133L20.3261 9.0684ZM25.114 6.13203L24.7598 5.77911L24.7598 5.77911L25.114 6.13203ZM25.114 4.26339L24.7598 4.61631L24.7598 4.61631L25.114 4.26339ZM23.2521 4.26349L22.8979 3.91057L22.8979 3.91057L23.2521 4.26349ZM20.3262 7.19985L20.6804 7.55278L20.6804 7.55278L20.3262 7.19985ZM23.7237 14.5358L24.0779 14.1829L24.0779 14.1829L23.7237 14.5358ZM24.6547 14.923L24.6547 14.423L24.6545 14.423L24.6547 14.923ZM23.338 13.6017L23.838 13.6018L23.838 13.6016L23.338 13.6017ZM24.6547 12.2804L24.6546 12.7804L24.6547 12.7804L24.6547 12.2804ZM28.792 12.2804L28.792 12.7804L28.7922 12.7804L28.792 12.2804ZM30.1086 13.6016L29.6086 13.6015L29.6086 13.6017L30.1086 13.6016ZM28.7919 14.9229L28.792 14.4229L28.7919 14.4229L28.7919 14.9229ZM16.2321 1.32029C16.2316 0.316336 15.4204 -0.500197 14.4157 -0.500976L14.4149 0.499023C14.8647 0.499372 15.2319 0.865512 15.2321 1.3208L16.2321 1.32029ZM16.2319 5.47272L16.2321 1.32057L15.2321 1.32052L15.2319 5.47268L16.2319 5.47272ZM14.4153 7.29413C15.4202 7.294 16.2318 6.47689 16.2319 5.47276L15.2319 5.47263C15.2319 5.92794 14.8645 6.29407 14.4152 6.29413L14.4153 7.29413ZM13.13 6.76004C13.4582 7.08937 13.9132 7.29374 14.4148 7.29413L14.4156 6.29413C14.19 6.29395 13.9866 6.20294 13.8384 6.05419L13.13 6.76004ZM12.5985 5.47283C12.5986 5.97473 12.8019 6.43077 13.13 6.76004L13.8384 6.05419C13.6899 5.9052 13.5986 5.7001 13.5985 5.47257L12.5985 5.47283ZM12.5985 1.32055L12.5985 5.4727L13.5985 5.4727L13.5985 1.32055L12.5985 1.32055ZM14.4152 -0.500977C13.4102 -0.500846 12.5986 0.316169 12.5985 1.32048L13.5985 1.32061C13.5986 0.865116 13.9658 0.499082 14.4154 0.499023L14.4152 -0.500977ZM33.4988 28.1697V34.2284H34.4988V28.1697H33.4988ZM31.4833 26.1453C32.5948 26.1453 33.4988 27.05 33.4988 28.1697H34.4988C34.4988 26.5011 33.1504 25.1453 31.4833 25.1453V26.1453ZM29.4679 28.1697C29.4679 27.05 30.3719 26.1453 31.4833 26.1453V25.1453C29.8162 25.1453 28.4679 26.5011 28.4679 28.1697H29.4679ZM28.4648 28.6697H28.9679V27.6697H28.4648V28.6697ZM27.9648 26.6551V28.1697H28.9648V26.6551H27.9648ZM25.9494 24.6307C27.0608 24.6307 27.9648 25.5354 27.9648 26.6551H28.9648C28.9648 24.9865 27.6165 23.6307 25.9494 23.6307V24.6307ZM23.9339 26.6551C23.9339 25.5354 24.8379 24.6307 25.9494 24.6307V23.6307C24.2823 23.6307 22.9339 24.9865 22.9339 26.6551H23.9339ZM23.9339 28.1697V26.6551H22.9339V28.1697H23.9339ZM22.9309 28.6697H23.4339V27.6697H22.9309V28.6697ZM22.4309 25.6453V28.1697H23.4309V25.6453H22.4309ZM20.4154 23.6209C21.5269 23.6209 22.4309 24.5256 22.4309 25.6453H23.4309C23.4309 23.9767 22.0825 22.6209 20.4154 22.6209V23.6209ZM18.4 25.6453C18.4 24.5256 19.304 23.6209 20.4154 23.6209V22.6209C18.7483 22.6209 17.4 23.9767 17.4 25.6453H18.4ZM18.4 28.1697V25.6453H17.4V28.1697H18.4ZM17.3969 28.6697H17.9V27.6697H17.3969V28.6697ZM16.8969 15.5476V28.1697H17.8969V15.5476H16.8969ZM14.8815 13.5232C15.9929 13.5232 16.8969 14.4279 16.8969 15.5476H17.8969C17.8969 13.879 16.5486 12.5232 14.8815 12.5232V13.5232ZM12.866 15.5476C12.866 14.4279 13.77 13.5232 14.8815 13.5232V12.5232C13.2144 12.5232 11.866 13.879 11.866 15.5476H12.866ZM12.866 32.9657V15.5476H11.866V32.9657H12.866ZM9.97093 30.5126L11.9611 33.259L12.7709 32.6723L10.7807 29.9258L9.97093 30.5126ZM7.1567 30.0662C8.05627 29.4097 9.31598 29.6088 9.97094 30.5126L10.7807 29.9258C9.80148 28.5746 7.91476 28.2749 6.56716 29.2585L7.1567 30.0662ZM6.71202 32.8954C6.05628 31.9905 6.25618 30.7235 7.15671 30.0662L6.56716 29.2585C5.22077 30.2412 4.92387 32.132 5.90228 33.4821L6.71202 32.8954ZM14.7612 44.0028L6.71202 32.8954L5.90228 33.4821L13.9515 44.5896L14.7612 44.0028ZM15.4768 44.6157C15.1936 44.471 14.9484 44.261 14.7612 44.0028L13.9515 44.5897C14.2311 44.9754 14.5978 45.2896 15.0217 45.5062L15.4768 44.6157ZM16.3907 44.8359C16.0731 44.8358 15.76 44.7605 15.4768 44.6157L15.0217 45.5062C15.4457 45.7229 15.9148 45.8358 16.3907 45.8359L16.3907 44.8359ZM29.471 44.8359H16.3907V45.8359H29.471V44.8359ZM31.4328 43.2755C31.2182 44.1909 30.405 44.8359 29.471 44.8359V45.8359C30.8716 45.8359 32.0863 44.869 32.4064 43.5038L31.4328 43.2755ZM33.4451 34.6925L31.4328 43.2755L32.4064 43.5038L34.4187 34.9207L33.4451 34.6925ZM33.4988 34.2284C33.4988 34.3847 33.4808 34.5404 33.4451 34.6924L34.4187 34.9208C34.472 34.6937 34.4988 34.4613 34.4988 34.2284H33.4988ZM17.9 32.7186H17.3969V33.7186H17.9V32.7186ZM18.4 39.2772V33.2186H17.4V39.2772H18.4ZM17.3969 39.7772H17.9V38.7772H17.3969V39.7772ZM16.8969 33.2186V39.2772H17.8969V33.2186H16.8969ZM23.4339 32.7186H22.9309V33.7186H23.4339V32.7186ZM23.9339 39.2772V33.2186H22.9339V39.2772H23.9339ZM22.9309 39.7772H23.4339V38.7772H22.9309V39.7772ZM22.4309 33.2186V39.2772H23.4309V33.2186H22.4309ZM28.9679 32.7186H28.4648V33.7186H28.9679V32.7186ZM29.4679 39.2772V33.2186H28.4679V39.2772H29.4679ZM28.4648 39.7772H28.9679V38.7772H28.4648V39.7772ZM27.9648 33.2186V39.2772H28.9648V33.2186H27.9648ZM8.35429 8.25967C8.6741 8.58064 8.67411 9.1017 8.35447 9.42248L9.06284 10.1283C9.7715 9.41713 9.77113 8.26484 9.06265 7.55383L8.35429 8.25967ZM5.42876 5.32368L8.35429 8.25967L9.06265 7.55383L6.13712 4.61784L5.42876 5.32368ZM4.27513 5.3235C4.59383 5.00366 5.10997 5.00376 5.42876 5.32368L6.13712 4.61784C5.4278 3.90598 4.27655 3.90533 3.56676 4.61765L4.27513 5.3235ZM4.27522 6.48639C3.95548 6.1655 3.95552 5.64425 4.27513 5.3235L3.56676 4.61765C2.85827 5.32868 2.85831 6.48116 3.56686 7.19224L4.27522 6.48639ZM7.20076 9.42238L4.27522 6.48639L3.56686 7.19224L6.49239 10.1282L7.20076 9.42238ZM8.35447 9.42248C8.03591 9.74218 7.51962 9.74228 7.20069 9.42232L6.49245 10.1283C7.202 10.8401 8.3533 10.8404 9.06284 10.1283L8.35447 9.42248ZM5.45427 11.7806H1.31654V12.7806H5.45427V11.7806ZM7.27081 13.6019C7.27094 12.5977 6.45923 11.7808 5.4544 11.7806L5.45414 12.7806C5.90374 12.7807 6.27086 13.1468 6.27081 13.6017L7.27081 13.6019ZM5.45411 15.4231C6.4591 15.4233 7.27094 14.606 7.27081 13.6017L6.27081 13.6019C6.27086 14.0571 5.90348 14.4232 5.45424 14.4231L5.45411 15.4231ZM1.31642 15.4229L5.45415 15.4231L5.4542 14.4231L1.31646 14.4229L1.31642 15.4229ZM0.0314484 14.889C0.359492 15.2183 0.814503 15.4229 1.31644 15.4229V14.4229C1.09136 14.4229 0.888144 14.3321 0.739816 14.1832L0.0314484 14.889ZM-0.5 13.6018C-0.5 14.1039 -0.296825 14.5596 0.0314491 14.889L0.739816 14.1832C0.591157 14.034 0.5 13.8293 0.5 13.6018H-0.5ZM1.31673 11.7806C0.311565 11.7802 -0.500129 12.5975 -0.5 13.6019L0.5 13.6017C0.499941 13.1463 0.86727 12.7804 1.31634 12.7806L1.31673 11.7806ZM21.834 8.71538C21.5153 9.03529 20.9989 9.03524 20.6803 8.71548L19.9719 9.42133C20.6814 10.1333 21.8329 10.1333 22.5424 9.42123L21.834 8.71538ZM24.7598 5.77911L21.834 8.71538L22.5424 9.42123L25.4682 6.48496L24.7598 5.77911ZM24.7598 4.61631C25.0795 4.93715 25.0795 5.45831 24.7598 5.77911L25.4682 6.48496C26.1766 5.77397 26.1768 4.62159 25.4682 3.91047L24.7598 4.61631ZM23.6063 4.61641C23.9251 4.29648 24.4411 4.29648 24.7598 4.61631L25.4682 3.91047C24.7586 3.19833 23.6074 3.19853 22.8979 3.91057L23.6063 4.61641ZM20.6804 7.55278L23.6063 4.61641L22.8979 3.91057L19.972 6.84693L20.6804 7.55278ZM20.6803 8.71548C20.3606 8.39462 20.3607 7.87364 20.6804 7.55278L19.972 6.84693C19.2637 7.55785 19.2632 8.71004 19.9719 9.42133L20.6803 8.71548ZM23.3695 14.8888C23.6976 15.218 24.1524 15.4232 24.6548 15.423L24.6545 14.423C24.4298 14.4231 24.2267 14.3323 24.0779 14.1829L23.3695 14.8888ZM22.838 13.6016C22.8379 14.1041 23.0417 14.5598 23.3695 14.8888L24.0779 14.1829C23.9293 14.0338 23.838 13.8291 23.838 13.6018L22.838 13.6016ZM24.6547 11.7804C23.6498 11.7802 22.8379 12.5975 22.838 13.6018L23.838 13.6016C23.838 13.1464 24.2054 12.7803 24.6546 12.7804L24.6547 11.7804ZM28.792 11.7804L24.6547 11.7804L24.6547 12.7804L28.792 12.7804L28.792 11.7804ZM30.6086 13.6017C30.6087 12.5975 29.7968 11.78 28.7918 11.7804L28.7922 12.7804C29.2411 12.7802 29.6086 13.1463 29.6086 13.6015L30.6086 13.6017ZM28.7919 15.4229C29.797 15.4231 30.6088 14.6059 30.6086 13.6015L29.6086 13.6017C29.6087 14.0569 29.2415 14.423 28.792 14.4229L28.7919 15.4229ZM24.6547 15.423L28.792 15.4229L28.7919 14.4229L24.6547 14.423L24.6547 15.423Z" fill="#F0F0F0" mask="url(#path-1-inside-1_1_79570)"/>
</svg>
